<svg xmlns="http://www.w3.org/2000/svg" version="1.0" preserveAspectRatio="xMidYMid meet" viewBox="235.17 218.3 563.26 539.02">
  <g transform="translate(0.000000,1024.000000) scale(0.100000,-0.100000)" fill="#000000" stroke="none">
    <path d="M4833 8045 c-386 -44 -717 -141 -1058 -310 -745 -369 -1247 -1005 -1391 -1764 -20 -103 -27 -180 -31 -321 -8 -288 19 -476 108 -745 115 -346 293 -630 566 -903 79 -78 143 -147 143 -153 0 -5 -48 -216 -106 -467 -102 -439 -106 -459 -94 -509 30 -137 172 -232 297 -200 27 7 156 76 293 157 232 136 561 327 660 382 25 14 91 51 146 82 101 56 102 56 149 46 376 -84 947 -85 1296 -2 l76 19 159 -95 c87 -52 287 -169 444 -259 157 -91 338 -196 403 -234 64 -39 133 -77 152 -85 48 -20 135 -18 187 5 53 23 121 94 139 147 29 86 24 112 -123 681 l-90 352 33 28 c79 64 217 205 292 298 456 565 613 1298 421 1967 -125 437 -325 772 -646 1083 -431 418 -990 688 -1633 787 -173 26 -613 34 -792 13z m683 -210 c571 -76 1066 -284 1475 -622 98 -80 279 -269 352 -366 186 -246 320 -542 386 -849 33 -154 44 -289 38 -467 -18 -589 -264 -1087 -744 -1504 -51 -44 -93 -88 -93 -97 0 -9 25 -113 56 -231 119 -459 184 -729 184 -761 0 -19 -6 -43 -14 -53 -14 -20 17 -37 -701 381 -383 222 -529 304 -544 304 -8 0 -80 -13 -160 -30 -401 -81 -847 -75 -1239 15 l-63 15 -62 -31 c-58 -29 -832 -470 -1067 -608 l-105 -61 -23 25 c-14 17 -20 34 -17 48 18 87 163 703 194 832 l40 160 -87 79 c-292 266 -443 458 -568 721 -230 488 -257 1009 -77 1529 180 525 634 1016 1187 1285 367 178 719 271 1161 305 91 7 381 -4 491 -19z"/>
    <path d="M4134 6490 c-281 -23 -560 -183 -714 -410 -56 -83 -113 -206 -141 -305 -30 -106 -32 -296 -5 -400 40 -149 126 -319 210 -412 52 -58 52 -51 -8 -193 -52 -121 -59 -157 -41 -217 20 -66 84 -139 134 -153 71 -19 115 -2 211 81 68 58 145 104 230 136 56 22 91 26 245 34 206 10 291 27 420 88 142 66 253 152 340 263 56 71 135 216 156 286 13 46 29 56 29 19 0 -58 55 -180 133 -296 163 -243 422 -391 707 -407 184 -10 311 -67 476 -214 119 -105 205 -105 276 0 75 109 77 170 13 330 l-36 91 64 62 c108 104 193 249 244 413 24 81 27 104 27 249 1 187 -11 247 -80 394 -121 257 -332 434 -619 516 -242 70 -476 46 -710 -73 -103 -52 -164 -96 -249 -179 -91 -91 -150 -174 -201 -289 -24 -53 -45 -98 -48 -100 -2 -3 -12 19 -22 48 -58 179 -202 364 -368 476 -122 81 -295 144 -432 157 -122 11 -152 12 -241 5z m312 -230 c102 -24 179 -58 259 -115 255 -182 365 -501 270 -786 -69 -205 -255 -386 -470 -455 -67 -22 -109 -28 -255 -35 -255 -12 -354 -42 -500 -153 -52 -39 -76 -52 -78 -42 -2 8 24 71 58 139 46 95 59 131 54 151 -4 15 -32 46 -70 76 -111 87 -192 213 -229 355 -19 75 -19 250 0 330 39 165 148 321 295 422 189 129 424 168 666 113z m1890 -11 c276 -72 477 -271 546 -541 17 -69 20 -101 15 -193 -12 -238 -111 -419 -307 -565 -55 -41 -70 -57 -70 -77 0 -14 22 -74 49 -132 53 -116 66 -151 56 -151 -4 0 -44 27 -90 60 -146 105 -276 152 -456 165 -110 7 -203 32 -308 83 -60 29 -96 56 -172 132 -79 79 -102 109 -136 180 -188 388 -34 813 361 995 106 50 173 63 312 64 91 1 139 -4 200 -20z"/>
    <g>
      <path d="M 3879 5801 C 3836 5758 3838 5700 3884 5654 L 3918 5620 L 4237 5620 C 4520 5620 4558 5622 4580 5637 C 4628 5670 4645 5718 4626 5765 C 4598 5830 4601 5830 4237 5830 L 3908 5830 L 3879 5801 Z"/>
      <path d="M 3898 5463 C 3823 5416 3842 5294 3928 5270 C 3979 5256 4518 5257 4559 5271 C 4596 5284 4620 5324 4620 5376 C 4620 5404 4612 5420 4586 5446 L 4552 5480 L 4238 5480 C 3964 5480 3922 5477 3898 5463 Z"/>
    </g>
  </g>
  <g transform="matrix(0.1, 0, 0, -0.1, 87.915558, 1165.234985)">
    <path d="M 4893.531 7027.417 C 4850.531 6984.417 4852.531 6926.417 4898.531 6880.417 L 4932.531 6846.417 L 5251.53 6846.417 C 5534.53 6846.417 5572.53 6848.417 5594.53 6863.417 C 5642.53 6896.417 5659.53 6944.417 5640.53 6991.417 C 5612.53 7056.417 5615.53 7056.417 5251.53 7056.417 L 4922.531 7056.417 L 4893.531 7027.417 Z" style="transform-box: fill-box; transform-origin: 50% 50%;" transform="matrix(0.009864, -0.999951, 0.999951, 0.009864, -0.00008, 0.000375)"/>
    <path d="M 4929.155 7046.23 C 4854.155 6999.23 4873.155 6877.23 4959.155 6853.23 C 5010.155 6839.23 5549.156 6840.23 5590.156 6854.23 C 5627.156 6867.23 5651.156 6907.23 5651.156 6959.23 C 5651.156 6987.23 5643.156 7003.23 5617.156 7029.23 L 5583.156 7063.23 L 5269.156 7063.23 C 4995.155 7063.23 4953.155 7060.23 4929.155 7046.23 Z" style="transform-box: fill-box; transform-origin: 50% 50%;" transform="matrix(-0.999971, 0.007642, -0.007642, -0.999971, -0.000056, -0.000748)"/>
  </g>
</svg>